<svg id="Calque_1" data-name="Calque 1" xmlns="http://www.w3.org/2000/svg" viewBox="0 0 93.87 83.17"><title>Objet dynamique vectoriel</title><polygon points="36 38.57 25.63 48.95 28.45 51.77 40 40.23 40 14.4 36 14.4 36 38.57"/><path d="M38,72A34,34,0,1,1,71.69,33.51a27.41,27.41,0,0,1,4.07.32A38,38,0,1,0,48,74.66,27.24,27.24,0,0,1,46.17,71,33.94,33.94,0,0,1,38,72Z"/><path d="M71.54,38.51A22.33,22.33,0,1,0,93.87,60.84,22.36,22.36,0,0,0,71.54,38.51Zm8,24.29H73.75v6.54H69.34V62.8H63.53V58.61h5.81V52.34h4.41v6.27h5.79V62.8Z"/></svg>