<?xml version="1.0" encoding="utf-8"?>
<!-- Generator: Adobe Illustrator 19.2.1, SVG Export Plug-In . SVG Version: 6.00 Build 0)  -->
<svg version="1.1" id="Calque_1" xmlns="http://www.w3.org/2000/svg" xmlns:xlink="http://www.w3.org/1999/xlink" x="0px" y="0px"
	 viewBox="0 0 23.9 23" style="enable-background:new 0 0 23.9 23;" xml:space="preserve">
<style type="text/css">
	.st0{fill:#8C2C74;}
</style>
<path class="st0" d="M23.9,9.1c0.1-0.4-0.2-0.8-0.6-0.8l-7.4-1.1l-3.3-6.7C12.5,0.2,12.2,0,12,0c-0.3,0-0.5,0.2-0.7,0.4L8,7.2
	L0.6,8.2c-0.2,0-0.3,0.1-0.4,0.2c-0.3,0.3-0.3,0.8,0,1l5.3,5.2l-1.3,7.4c0,0,0,0.1,0,0.1C4.3,22.7,4.6,23,5,23c0.1,0,0.2,0,0.3-0.1
	l6.6-3.5l6.6,3.5c0.2,0.1,0.5,0.1,0.8-0.1c0.2-0.2,0.3-0.4,0.3-0.7l-1.3-7.4l5.4-5.2C23.8,9.4,23.9,9.2,23.9,9.1z M19.8,10.7
	l-3.6,3.4l0.8,4.8c0,0.2,0,0.4-0.2,0.5c-0.2,0.1-0.4,0.1-0.5,0L12,17.2l-4.4,2.3c-0.1,0-0.2,0.1-0.2,0.1h0c-0.1,0-0.2,0-0.3-0.1
	c-0.2-0.1-0.2-0.3-0.2-0.5l0.8-4.8l-3.6-3.4C4,10.6,3.9,10.4,4,10.2C4,10,4.2,9.9,4.4,9.9l4.9-0.7l2.2-4.4c0.1-0.2,0.3-0.3,0.4-0.3
	c0.2,0,0.4,0.1,0.4,0.3l2.2,4.4l4.9,0.7c0.2,0,0.3,0.2,0.4,0.3C20,10.4,20,10.6,19.8,10.7z"/>
</svg>
