<svg xmlns="http://www.w3.org/2000/svg" viewBox="0 0 272.6 23.8" style="width:343px;"><path style="fill:white;" d="M0,1.1V22.7H19.8V17.5H5.6V1.1H0ZM64,17.5H54.9V14.1h8.9a1.63,1.63,0,0,1,1.7,1.7A1.43,1.43,0,0,1,64,17.5M55,6.2h7.9a1.35,1.35,0,0,1,1.3,1.5,1.55,1.55,0,0,1-1.1,1.5H55v-3Zm13.2,4.3a4.06,4.06,0,0,0,1.5-3.4c0-3.6-2.8-6-6.6-6H49.5V22.6H64.2a6.83,6.83,0,0,0,6.9-6.8c-0.1-2.7-1.1-4.3-2.9-5.3M81.5,1.1h20.2V6.2H81.5V1.1ZM31,1.1h5.8V22.6H31V1.1ZM81.5,9.2V22.7h20.2V17.6H87.1V14.2h10v-5H81.5ZM123,17.7a6,6,0,0,1-6.1-5.9A5.87,5.87,0,0,1,123,6a6,6,0,0,1,6.1,5.9,5.81,5.81,0,0,1-6.1,5.8m0-17.2c-6.3,0-11.9,4.5-11.9,11.3s5.5,11.4,11.8,11.5,11.9-4.5,11.9-11.3S129.4,0.5,123,.5"/><path style="fill:#d6e7ee" d="M155.4,5.5h2.8V18.6h-2.9V18.5l-3.5-7.9v7.9H149V5.5h2.8l3.6,7.9V5.5Zm25.84,3.19a7.8,7.8,0,0,1,.36,2.41v2.2a6.45,6.45,0,0,1-1.2,4.1,4.51,4.51,0,0,1-3.5,1.4,4.4,4.4,0,0,1-3.5-1.5,6.19,6.19,0,0,1-1.3-4V11.1a6.56,6.56,0,0,1,1.2-4.2,4.26,4.26,0,0,1,3.5-1.5h0.1a4.33,4.33,0,0,1,3.4,1.5A4.26,4.26,0,0,1,181.24,8.69ZM176.9,16.4a1.51,1.51,0,0,0,1.4-.7,4.62,4.62,0,0,0,.5-2.3V11.2a5.21,5.21,0,0,0-.5-2.5,1.37,1.37,0,0,0-1.4-.9,1.42,1.42,0,0,0-1.4.8A4.77,4.77,0,0,0,175,11v2.3a4.77,4.77,0,0,0,.5,2.4A1.51,1.51,0,0,0,176.9,16.4Zm15.8-9.8A5.82,5.82,0,0,1,194,10v0.1h-2.8a4.14,4.14,0,0,0-.4-1.9,1.8,1.8,0,0,0-1.35-.5,1.4,1.4,0,0,0-1.35.7,4.5,4.5,0,0,0-.4,2.3v2.4a5.61,5.61,0,0,0,.4,2.6,1.61,1.61,0,0,0,1.4.7,2.44,2.44,0,0,0,.91-0.17A1.64,1.64,0,0,0,190.7,16a2.65,2.65,0,0,0,.4-1.8H194v0.1a5,5,0,0,1-1.3,3.4,4.86,4.86,0,0,1-3.3,1.1,4.06,4.06,0,0,1-3.4-1.5,6.56,6.56,0,0,1-1.2-4.2V11A6.08,6.08,0,0,1,186,6.9a4.19,4.19,0,0,1,3.4-1.5A4.46,4.46,0,0,1,192.7,6.6Zm11.6,9.7h-4.4V5.6h-2.8v13h7.3V16.3h-0.1Zm11.54-7.61a7.8,7.8,0,0,1,.36,2.41v2.2a6.45,6.45,0,0,1-1.2,4.1,4.67,4.67,0,0,1-3.5,1.4,4.4,4.4,0,0,1-3.5-1.5,6.19,6.19,0,0,1-1.3-4V11.1a6.56,6.56,0,0,1,1.2-4.2,4.26,4.26,0,0,1,3.5-1.5h0.1a4.33,4.33,0,0,1,3.4,1.5A4.26,4.26,0,0,1,215.84,8.69ZM211.5,16.4a1.51,1.51,0,0,0,1.4-.7,4.62,4.62,0,0,0,.5-2.3V11.2a5.21,5.21,0,0,0-.5-2.5,1.37,1.37,0,0,0-1.4-.9,1.42,1.42,0,0,0-1.4.8,4.77,4.77,0,0,0-.5,2.4v2.3a4.77,4.77,0,0,0,.5,2.4A1.51,1.51,0,0,0,211.5,16.4Zm15.8-9.8a5.82,5.82,0,0,1,1.3,3.4v0.1h-2.8a4.14,4.14,0,0,0-.4-1.9,1.8,1.8,0,0,0-1.35-.5,1.4,1.4,0,0,0-1.35.7,4.5,4.5,0,0,0-.4,2.3v2.4a5.61,5.61,0,0,0,.4,2.6,1.61,1.61,0,0,0,1.4.7,2.44,2.44,0,0,0,.91-0.17A1.64,1.64,0,0,0,225.3,16a2.65,2.65,0,0,0,.4-1.8h2.9v0.1a5,5,0,0,1-1.3,3.4,4.86,4.86,0,0,1-3.3,1.1,4.06,4.06,0,0,1-3.4-1.5,6.56,6.56,0,0,1-1.2-4.2V11a6.08,6.08,0,0,1,1.2-4.1A4.19,4.19,0,0,1,224,5.4,4.46,4.46,0,0,1,227.3,6.6Zm9.83,4.66L241,18.6h-3.4V18.5l-2.3-4.8-0.9,1.1v3.7h-2.8V5.5h2.8v5.2l0.6-1,2.4-4.3h3.5Zm6.47,7.34h2.8V5.6h-2.8v13Zm13-12.9v7.7L253,5.5h-2.8v13H253V10.6l3.5,7.9v0.1h2.9V5.5h-2.8V5.7Zm12.6,4.1V9.7a2.73,2.73,0,0,0-.5-1.6,1.34,1.34,0,0,0-1.2-.4,1.42,1.42,0,0,0-1.4.7,4.77,4.77,0,0,0-.5,2.4v2.3a5.21,5.21,0,0,0,.5,2.5,1.75,1.75,0,0,0,1.6.7,2.13,2.13,0,0,0,1.2-.3H269V13.8h-1.8V11.6h4.7v5.5a4.14,4.14,0,0,1-1.9,1.2,6.87,6.87,0,0,1-2.4.5,4.51,4.51,0,0,1-3.5-1.4,6.09,6.09,0,0,1-1.3-4.1V11A6.56,6.56,0,0,1,264,6.8a4.26,4.26,0,0,1,3.5-1.5,4.42,4.42,0,0,1,3.2,1.1A5,5,0,0,1,272,9.7V9.8h-2.8ZM268.8,8h0ZM164.6,13h4V10.7h-6.9v7.9h7.7V16.1h-4.8V13Zm4.6-5.1h0.1V5.5h-7.6V7.9h7.5Z"/><path style="fill:#7c8a9d" d="M148.4,0H272.6V0.5H148.4V0Zm0,23.3H272.6v0.5H148.4V23.3Z"/></svg>