<svg xmlns="http://www.w3.org/2000/svg" width="35" height="35" viewBox="0 0 35 35">
  <defs>
    <style>
      .cls-1 {
        fill: #8c2c74;
        fill-rule: evenodd;
      }
    </style>
  </defs>
  <path id="Poubelle.svg" class="cls-1" d="M434,783a9,9,0,1,1,9-9A9,9,0,0,1,434,783Zm4-10h-8v2h8v-2Zm-21,0V758a1,1,0,0,1,2,0v15A1,1,0,0,1,417,773Zm6,0V758a1,1,0,0,1,2,0v9.687a10.938,10.938,0,0,0-1.96,5.513A0.958,0.958,0,0,1,423,773Zm9-21h-1v11.425a10.893,10.893,0,0,0-2,.785V752H412v24a2,2,0,0,0,2,2h9.761a10.968,10.968,0,0,0,1.026,2H413a3,3,0,0,1-3-3V752h-1a1,1,0,0,1,0-2h10v-1.5a0.5,0.5,0,0,1,.5-0.5h3a0.5,0.5,0,0,1,.5.5V750h9A1,1,0,0,1,432,752Z" transform="translate(-408 -748)"/>
</svg>
