<svg xmlns="http://www.w3.org/2000/svg" width="17" height="17.062" viewBox="0 0 17 17.062">
  <defs>
    <style>
      .cls-1 {
        fill: #8c2c74;
        fill-rule: evenodd;
      }
    </style>
  </defs>
  <path id="Remplacer.svg" class="cls-1" d="M160,866h11v2H160v-2Zm-2,5-1,1a1,1,0,0,1-1-1,5,5,0,0,1,5-5v2A3,3,0,0,0,158,871Zm10.347-7.778a1,1,0,0,1,1.415,0l2.828,2.829a1,1,0,0,1-1.414,1.414l-2.829-2.828A1,1,0,0,1,168.347,863.222Zm-0.207,7.826a1.039,1.039,0,0,1,0-1.47l2.938-2.938a1.039,1.039,0,0,1,1.47,1.469l-2.939,2.939A1.04,1.04,0,0,1,168.14,871.048Zm-10.265,3.921h11.094v2H157.875v-2Zm13.11-2.976,1.008-.993a1,1,0,0,1,1.007.993,5,5,0,0,1-5.037,4.966v-1.987A3,3,0,0,0,170.985,871.993Zm-10.424,7.724a1.018,1.018,0,0,1-1.425,0l-2.849-2.809a0.983,0.983,0,0,1,0-1.4,1.018,1.018,0,0,1,1.425,0l2.849,2.809A0.982,0.982,0,0,1,160.561,879.717Zm0.209-7.771a1.021,1.021,0,0,1,0,1.459l-2.96,2.918a1.057,1.057,0,0,1-1.48,0,1.021,1.021,0,0,1,0-1.459l2.96-2.918A1.057,1.057,0,0,1,160.77,871.946Z" transform="translate(-156 -862.938)"/>
</svg>
