<svg xmlns="http://www.w3.org/2000/svg" xmlns:xlink="http://www.w3.org/1999/xlink" preserveAspectRatio="xMidYMid" width="20" height="20" viewBox="0 0 20 20">
  <defs>
    <style>
      .cls-1 {
        fill: #8698a5;
        fill-rule: evenodd;
      }
    </style>
  </defs>
  <path d="M10.000,20.000 C4.486,20.000 -0.000,15.514 -0.000,10.000 C-0.000,4.486 4.486,0.000 10.000,0.000 C15.514,0.000 20.000,4.486 20.000,10.000 C20.000,15.514 15.514,20.000 10.000,20.000 ZM10.000,2.000 C5.589,2.000 2.000,5.589 2.000,10.000 C2.000,14.411 5.589,18.000 10.000,18.000 C14.411,18.000 18.000,14.411 18.000,10.000 C18.000,5.589 14.411,2.000 10.000,2.000 ZM9.000,10.414 L9.000,5.000 L11.000,5.000 L11.000,9.586 L13.707,12.293 L12.293,13.707 L9.000,10.414 Z" class="cls-1"/>
</svg>
